<?xml version="1.0" encoding="utf-8"?>
<svg xmlns="http://www.w3.org/2000/svg" viewBox="0 0 32 32" width="32px" height="32px" stroke="black" fill="none" stroke-linecap="round" stroke-linejoin="round">
    <circle cx="16" cy="16" r="16" stroke="none" fill="white"/>
    <path d="M 8 20 C 7 24 7 28 9 28"/>
    <path d="M 8 27 C 12 25 16 22 16 14 L 16 8 C 16 5 15 4 14 4 C 14 12 12 16 4 24"/>
    <path d="M 24 20 C 25 24 25 28 23 28"/>
    <path d="M 24 27 C 20 25 16 22 16 14 L 16 8 C 16 5 17 4 18 4 C 18 12 20 16 28 24"/>
</svg>

